<svg xmlns="http://www.w3.org/2000/svg" xmlns:xlink="http://www.w3.org/1999/xlink" width="24" height="24" preserveAspectRatio="xMidYMid meet" viewBox="0 0 24 24" style="-ms-transform: rotate(360deg); -webkit-transform: rotate(360deg); transform: rotate(360deg);"><path d="M7.25 6a.75.75 0 0 0-.75.75v7.5a.75.75 0 0 0 1.5 0v-7.5A.75.75 0 0 0 7.25 6zM12 6a.75.75 0 0 0-.75.75v4.5a.75.75 0 0 0 1.5 0v-4.5A.75.75 0 0 0 12 6zm4 .75a.75.75 0 0 1 1.5 0v9.5a.75.75 0 0 1-1.5 0v-9.5z" fill="#626262"/><path fill-rule="evenodd" d="M3.75 2A1.75 1.75 0 0 0 2 3.75v16.5c0 .966.784 1.75 1.75 1.75h16.5A1.75 1.75 0 0 0 22 20.25V3.75A1.75 1.75 0 0 0 20.25 2H3.75zM3.5 3.75a.25.25 0 0 1 .25-.25h16.5a.25.25 0 0 1 .25.25v16.5a.25.25 0 0 1-.25.25H3.75a.25.25 0 0 1-.25-.25V3.75z" fill="#626262"/><rect x="0" y="0" width="24" height="24" fill="rgba(0, 0, 0, 0)" /></svg>