<svg xmlns="http://www.w3.org/2000/svg" xmlns:xlink="http://www.w3.org/1999/xlink" width="24" height="24" preserveAspectRatio="xMidYMid meet" viewBox="0 0 24 24" style="-ms-transform: rotate(360deg); -webkit-transform: rotate(360deg); transform: rotate(360deg);"><path fill-rule="evenodd" d="M3 3.25c0-.966.784-1.75 1.75-1.75h5.5a.75.75 0 0 1 0 1.5h-5.5a.25.25 0 0 0-.25.25v17.5c0 .138.112.25.25.25h5.5a.75.75 0 0 1 0 1.5h-5.5A1.75 1.75 0 0 1 3 20.75V3.25zm16.006 9.5l-3.3 3.484a.75.75 0 0 0 1.088 1.032l4.5-4.75a.75.75 0 0 0 0-1.032l-4.5-4.75a.75.75 0 0 0-1.088 1.032l3.3 3.484H10.75a.75.75 0 0 0 0 1.5h8.256z" fill="#ffffff"/><rect x="0" y="0" width="24" height="24" fill="rgba(255, 255, 255, 0)" /></svg>