<svg xmlns="http://www.w3.org/2000/svg" xmlns:xlink="http://www.w3.org/1999/xlink" width="15" height="15" preserveAspectRatio="xMidYMid meet" viewBox="0 0 24 24" style="-ms-transform: rotate(360deg); -webkit-transform: rotate(360deg); transform: rotate(360deg);"><path d="M8.456 14.494a.75.75 0 0 1 1.068.17a3.08 3.08 0 0 0 .572.492A3.381 3.381 0 0 0 12 15.72c.855 0 1.487-.283 1.904-.562a3.081 3.081 0 0 0 .572-.492l.021-.026a.75.75 0 0 1 1.197.905l-.027.034c-.013.016-.03.038-.052.063c-.044.05-.105.119-.184.198a4.569 4.569 0 0 1-.695.566A4.88 4.88 0 0 1 12 17.22a4.88 4.88 0 0 1-2.736-.814a4.57 4.57 0 0 1-.695-.566a3.253 3.253 0 0 1-.236-.261c-.259-.332-.223-.824.123-1.084z" fill="#626262"/><path fill-rule="evenodd" d="M12 1C5.925 1 1 5.925 1 12s4.925 11 11 11s11-4.925 11-11S18.075 1 12 1zM2.5 12a9.5 9.5 0 1 1 19 0a9.5 9.5 0 0 1-19 0z" fill="#626262"/><path d="M9 10.75a1.25 1.25 0 1 1-2.5 0a1.25 1.25 0 0 1 2.5 0zM16.25 12a1.25 1.25 0 1 0 0-2.5a1.25 1.25 0 0 0 0 2.5z" fill="#626262"/><rect x="0" y="0" width="24" height="24" fill="rgba(0, 0, 0, 0)" /></svg>